<svg xmlns="http://www.w3.org/2000/svg" viewBox="0 0 12.28 16"><defs><style>.cls-1{fill:#fff;}</style></defs><title>Ascending</title><g id="Layer_2" data-name="Layer 2"><g id="Layer_1-2" data-name="Layer 1"><path class="cls-1" d="M5,16h7.25V14H5Z"/><path class="cls-1" d="M6,12.5h6.25v-2H6Z"/><path class="cls-1" d="M7,9h5.25V7H7Z"/><path class="cls-1" d="M8,5.5h4.25v-2H8Z"/><path class="cls-1" d="M9,2h3.25V0H9Z"/><path class="cls-1" d="M2.63,16a.39.39,0,0,1-.33-.37V1.89L.85,3.35a.33.33,0,0,1-.26.11.33.33,0,0,1-.26-.11L.11,3.13A.39.39,0,0,1,0,2.86.36.36,0,0,1,.11,2.6L2.56.11A.39.39,0,0,1,2.83,0a.36.36,0,0,1,.26.11L5.55,2.6a.35.35,0,0,1,.1.26.38.38,0,0,1-.1.27l-.23.22a.33.33,0,0,1-.26.11.35.35,0,0,1-.27-.11L3.36,1.9V15.63h0A.39.39,0,0,1,3,16"/></g></g></svg>