<svg data-onclick="onSorting" data-colname="{$key}" height="16" width="16" xmlns="http://www.w3.org/2000/svg" viewBox="0 0 12.28 16"><path fill="#fff" class="cls-1" d="M5,2h7.25V0H5Z"/><path fill="#fff" class="cls-1" d="M6,5.5h6.25v-2H6Z"/><path fill="#fff" class="cls-1" d="M7,9h5.25V7H7Z"/><path fill="#fff" class="cls-1" d="M8,12.5h4.25v-2H8Z"/><path fill="#fff" class="cls-1" d="M9,16h3.25V14H9Z"/><path fill="#fff" class="cls-1" d="M3,16a.39.39,0,0,0,.33-.37V1.89L4.8,3.35a.36.36,0,0,0,.52,0l.23-.22a.38.38,0,0,0,.1-.27.35.35,0,0,0-.1-.26L3.09.11A.36.36,0,0,0,2.83,0a.39.39,0,0,0-.27.11L.11,2.6A.36.36,0,0,0,0,2.86a.39.39,0,0,0,.11.27l.22.22a.35.35,0,0,0,.27.11.33.33,0,0,0,.26-.11L2.3,1.9V15.63h0a.39.39,0,0,0,.32.38"/></svg>