<svg data-onclick="onSorting" data-colname="{$key}" height="16" width="16"  xmlns="http://www.w3.org/2000/svg" viewBox="0 0 12.28 16"><path fill="#fff" class="cls-1" d="M5,16h7.25V14H5Z"/><path fill="#fff" class="cls-1" d="M6,12.5h6.25v-2H6Z"/><path fill="#fff" class="cls-1" d="M7,9h5.25V7H7Z"/><path fill="#fff" class="cls-1" d="M8,5.5h4.25v-2H8Z"/><path fill="#fff" class="cls-1" d="M9,2h3.25V0H9Z"/><path fill="#fff" class="cls-1" d="M3,0a.39.39,0,0,1,.33.37V14.11L4.8,12.65a.36.36,0,0,1,.52,0l.23.22a.38.38,0,0,1,.1.27.35.35,0,0,1-.1.26L3.09,15.89a.36.36,0,0,1-.26.11.39.39,0,0,1-.27-.11L.11,13.4A.36.36,0,0,1,0,13.14a.39.39,0,0,1,.11-.27l.22-.22a.35.35,0,0,1,.27-.11.33.33,0,0,1,.26.11L2.3,14.1V.37h0A.39.39,0,0,1,2.61,0"/></svg>