<svg xmlns="http://www.w3.org/2000/svg" viewBox="0 0 12.28 16"><defs><style>.cls-1{fill:#fff;}</style></defs><title>Descending</title><g id="Layer_2" data-name="Layer 2"><g id="Layer_1-2" data-name="Layer 1"><path class="cls-1" d="M5,2h7.25V0H5Z"/><path class="cls-1" d="M6,5.5h6.25v-2H6Z"/><path class="cls-1" d="M7,9h5.25V7H7Z"/><path class="cls-1" d="M8,12.5h4.25v-2H8Z"/><path class="cls-1" d="M9,16h3.25V14H9Z"/><path class="cls-1" d="M2.63,0A.39.39,0,0,0,2.3.37V14.11L.85,12.65a.33.33,0,0,0-.26-.11.33.33,0,0,0-.26.11l-.22.22a.39.39,0,0,0-.11.27.36.36,0,0,0,.11.26l2.45,2.49a.39.39,0,0,0,.27.11.36.36,0,0,0,.26-.11L5.55,13.4a.35.35,0,0,0,.1-.26.38.38,0,0,0-.1-.27l-.23-.22a.33.33,0,0,0-.26-.11.35.35,0,0,0-.27.11L3.36,14.1V.37h0A.39.39,0,0,0,3,0"/></g></g></svg>