<svg xmlns="http://www.w3.org/2000/svg" viewBox="0 0 36.26 60"><defs><style>.cls-1{fill:#cc092f;}</style></defs><title>Back to top</title><g id="Layer_2" data-name="Layer 2"><g id="Layer_1-2" data-name="Layer 1"><path class="cls-1" d="M9.39,41.24H2a5.25,5.25,0,0,1-1-.08A1.15,1.15,0,0,1,0,40c0-1.39,0-2.78,0-4.16a1.48,1.48,0,0,1,.79-1.16c2.2-1.61,4.38-3.22,6.59-4.8a1,1,0,0,0,.49-1c0-3.73-.15-7.47,0-11.2C8,11.11,10.4,5.5,15.71,1.32c.49-.38,1.05-.68,1.57-1A1.47,1.47,0,0,1,19,.28a18.89,18.89,0,0,1,8.2,10.33,22.23,22.23,0,0,1,1.28,7.53c0,3.59,0,7.19,0,10.79a1.07,1.07,0,0,0,.5,1c2.15,1.59,4.28,3.21,6.44,4.79a1.83,1.83,0,0,1,.83,1.69c0,1.09,0,2.19,0,3.28s-.48,1.58-1.56,1.59c-2.39,0-4.77,0-7.16,0-.41,0-.62.07-.69.54-.13.85-.35,1.68-.52,2.52a3.73,3.73,0,0,1-3.65,3.05q-4.48,0-9,0a3.74,3.74,0,0,1-3.64-3C9.83,43.32,9.61,42.29,9.39,41.24Zm24.34-2.52c0-.64,0-1.22,0-1.8a1,1,0,0,0-.34-.66c-2-1.52-4-3-6-4.5a1.32,1.32,0,0,0-.74-.25q-8.41,0-16.82,0a1.3,1.3,0,0,0-.69.21Q6,34,2.81,36.3c-.13.09-.3.25-.3.38,0,.67,0,1.35,0,2Zm-15.6-36L17.65,3A17.11,17.11,0,0,0,10.5,15.35a53.9,53.9,0,0,0-.15,6.49c0,.44,0,.89,0,1.34H26c0-1.73,0-3.41,0-5.08a19.09,19.09,0,0,0-1.71-8.19A15.63,15.63,0,0,0,18.13,2.69ZM10.38,29H25.94V25.78H10.38ZM12,41.27c.19.91.35,1.77.56,2.62a1.19,1.19,0,0,0,1.25,1c2.93,0,5.86,0,8.79,0A1.18,1.18,0,0,0,23.8,44c.24-.88.39-1.78.59-2.7Z"/><path class="cls-1" d="M19.37,54.44v4.1c0,.89-.5,1.46-1.25,1.46s-1.25-.55-1.25-1.45V50.23a1.26,1.26,0,0,1,1.27-1.43,1.28,1.28,0,0,1,1.23,1.42Z"/><path class="cls-1" d="M28.24,52c0,.62,0,1.25,0,1.87a1.26,1.26,0,1,1-2.51,0c0-1.23,0-2.45,0-3.68a1.26,1.26,0,1,1,2.51,0V52Z"/><path class="cls-1" d="M10.6,52c0,.62,0,1.25,0,1.87a1.24,1.24,0,1,1-2.48,0c0-1.27,0-2.53,0-3.8a1.24,1.24,0,1,1,2.48,0V52Z"/><path class="cls-1" d="M18.09,20.85A4.75,4.75,0,1,1,22.9,16.2,4.75,4.75,0,0,1,18.09,20.85Zm2.34-4.72a2.25,2.25,0,0,0-2.26-2.27,2.26,2.26,0,1,0,0,4.51A2.26,2.26,0,0,0,20.43,16.13Z"/></g></g></svg>