<svg xmlns="http://www.w3.org/2000/svg" viewBox="0 0 54 39.46"><defs><style>.cls-1{fill:#e1fbff;}.cls-2{fill:#009cbc;}</style></defs><title>Corner Stone</title><g id="Layer_2" data-name="Layer 2"><g id="Layer_1-2" data-name="Layer 1"><polygon class="cls-1" points="3.8 6.11 27.84 5.27 39.66 2.95 51.26 5.69 52.94 7.38 52.94 34.16 51.26 36.9 47.88 37.75 41.76 35.85 36.7 35.22 31.64 36.48 28.37 38.15 26.37 38.59 20.8 35.03 14.98 35.01 7.43 37.04 3.8 37.54 0.9 34.58 0.43 7.52 1.78 5.23 3.8 6.11"/><path class="cls-1" d="M27,4.42,22.78,1.47l-3.37-.42H14.77S13.19.84,12.66.84C10.55.84,7.39,3,7.39,3L3.8,5.27l1,28.47,2.32-.42,4.22-1.06,3.17-.84,4.64.63,2.74.64,4.22,1.47.63.42Z"/><path class="cls-2" d="M50.21,6.3V32.59a1.9,1.9,0,0,1-2.34,2,2,2,0,0,1-.63-.25,19.09,19.09,0,0,0-11.54-2,17.09,17.09,0,0,0-6.35,2,20.51,20.51,0,0,0-1.77,1.14.85.85,0,0,1-1.11,0,17.94,17.94,0,0,0-12.11-3.22,17.94,17.94,0,0,0-7.69,2.16A1.9,1.9,0,0,1,3.79,32.6V6.31a2,2,0,0,0-2.2,2.18q0,12,0,24.09a4.12,4.12,0,0,0,6.29,3.66,16.58,16.58,0,0,1,9.49-1.81A15.23,15.23,0,0,1,23.18,36a10.7,10.7,0,0,1,1.94,1.25,2.94,2.94,0,0,0,3.66,0,13.68,13.68,0,0,1,7.07-2.75,18.23,18.23,0,0,1,7.56.58c.14,0,.27.08.4.14a.8.8,0,0,1,.57,1,.81.81,0,0,1-1.09.45A16.53,16.53,0,0,0,37.62,36a14.47,14.47,0,0,0-6.29,1.53,9.06,9.06,0,0,0-1.49,1,4.55,4.55,0,0,1-5.78-.08,10.23,10.23,0,0,0-4.62-2.05,16.37,16.37,0,0,0-10.26,1,12.22,12.22,0,0,1-2.32,1A5.64,5.64,0,0,1,0,32.8Q0,20.52,0,8.23A3.5,3.5,0,0,1,3.2,4.76a1.1,1.1,0,0,0,.92-.68,2.87,2.87,0,0,1,1-1.16c1.15-.65,2.37-1.21,3.58-1.75a.77.77,0,0,1,1.08.45c.14.45-.06.79-.57,1-1,.44-1.91.87-2.86,1.33a1.73,1.73,0,0,0-1,1.74q0,13.32,0,26.63c0,.78.13.86.82.49a20.33,20.33,0,0,1,10.64-2.22A19.78,19.78,0,0,1,26,33.19a.79.79,0,0,0,.16,0c0-.18,0-.36,0-.54q0-13.74,0-27.47a.89.89,0,0,0-.46-.86,17.61,17.61,0,0,0-8-2.64,21.38,21.38,0,0,0-5.36.17.81.81,0,0,1-.94-.65.74.74,0,0,1,.68-.89A28.25,28.25,0,0,1,15.43,0a19.88,19.88,0,0,1,9.81,2.17c.59.31,1.16.67,1.78,1,.46-.28,1-.61,1.48-.89A20.08,20.08,0,0,1,38.28,0a20.38,20.38,0,0,1,9.26,2.12A4.38,4.38,0,0,1,50.1,4.48c0,.13.37.21.57.25a3.51,3.51,0,0,1,2.93,2A3.85,3.85,0,0,1,54,8.26q0,12.26,0,24.52a5.68,5.68,0,0,1-7.54,5.34,1.48,1.48,0,0,1-.29-.12.78.78,0,0,1,.55-1.45,4.5,4.5,0,0,0,2.64.16,4.05,4.05,0,0,0,3.06-4q0-12.19,0-24.41C52.41,7.13,51.64,6.4,50.21,6.3ZM27.82,33.21c.11,0,.16,0,.2,0a19.18,19.18,0,0,1,8.5-2.53,20.61,20.61,0,0,1,11.28,2.2c.69.36.83.29.83-.48q0-13.37,0-26.73a1.54,1.54,0,0,0-.86-1.56,36.12,36.12,0,0,0-4.06-1.73,19,19,0,0,0-7.82-.63,17.2,17.2,0,0,0-7.66,2.61.89.89,0,0,0-.46.85q0,13.74,0,27.47C27.79,32.83,27.81,33,27.82,33.21Z"/><path class="cls-2" d="M16,19.38a16.88,16.88,0,0,1,5.25.83,3.43,3.43,0,0,1,.45.16c.54.22.75.62.56,1.06s-.59.59-1.14.4a16.65,16.65,0,0,0-10.69,0,.86.86,0,0,1-1.16-.38c-.18-.47,0-.87.61-1.1A18.4,18.4,0,0,1,16,19.38Z"/><path class="cls-2" d="M15.79,23.74a18.94,18.94,0,0,1,5.34.82,5.84,5.84,0,0,1,.59.2c.53.23.73.59.58,1s-.57.61-1.12.47a31.82,31.82,0,0,0-3.32-.75,16.24,16.24,0,0,0-7.32.68,1.46,1.46,0,0,1-.9,0,.78.78,0,0,1-.36-.67,1,1,0,0,1,.53-.73A33,33,0,0,1,13.17,24,25.24,25.24,0,0,1,15.79,23.74Z"/><path class="cls-2" d="M22.35,16.62a.85.85,0,0,1-1.17.85A29.5,29.5,0,0,0,18,16.73a16,16,0,0,0-7.34.63l-.3.11A.81.81,0,0,1,9.29,17a.75.75,0,0,1,.54-1,24,24,0,0,1,3-.78,18.23,18.23,0,0,1,8.49.61,1.92,1.92,0,0,1,.62.27A2.28,2.28,0,0,1,22.35,16.62Z"/><path class="cls-2" d="M15.79,10.81a2.88,2.88,0,0,1-2-.76.82.82,0,0,1-.16-1.21c.31-.37.75-.36,1.2,0a1.31,1.31,0,0,0,1.85,0c.44-.36.85-.38,1.17,0A.79.79,0,0,1,17.79,10,2.91,2.91,0,0,1,15.79,10.81Z"/><path class="cls-2" d="M10.33,8.88a4.42,4.42,0,0,1,0,.63.75.75,0,0,1-.79.69.72.72,0,0,1-.77-.7,7.57,7.57,0,0,1,0-1.26.73.73,0,0,1,.75-.72.77.77,0,0,1,.81.73c0,.21,0,.42,0,.63Z"/><path class="cls-2" d="M22.81,8.91a5.61,5.61,0,0,1,0,.58.72.72,0,0,1-.7.71.71.71,0,0,1-.83-.63,5.55,5.55,0,0,1,0-1.41.69.69,0,0,1,.82-.63.72.72,0,0,1,.72.75c0,.21,0,.42,0,.63Z"/><path class="cls-1" d="M27.82,33.21c0-.2,0-.38,0-.57q0-13.73,0-27.47a.89.89,0,0,1,.46-.85A17.2,17.2,0,0,1,35.9,1.71a19,19,0,0,1,7.82.63,36.12,36.12,0,0,1,4.06,1.73,1.54,1.54,0,0,1,.86,1.56q0,13.37,0,26.73c0,.77-.14.84-.83.48a20.61,20.61,0,0,0-11.28-2.2A19.18,19.18,0,0,0,28,33.17S27.93,33.19,27.82,33.21Zm10.37-22.6,0-.16c-1.55.25-3.11.48-4.65.76a6.12,6.12,0,0,0-1.44.49.68.68,0,0,0-.36.93.75.75,0,0,0,.93.49c.1,0,.2-.06.3-.09a16.35,16.35,0,0,1,8.15-.6c.89.15,1.76.44,2.64.68a.78.78,0,0,0,.58-1.44,3.79,3.79,0,0,0-.73-.28A17.29,17.29,0,0,0,38.19,10.61Zm0,8.65c-1.37.19-2.74.35-4.1.59a8.26,8.26,0,0,0-2,.64,1,1,0,0,0-.42.79.66.66,0,0,0,.71.64,1.69,1.69,0,0,0,.61-.14,15.64,15.64,0,0,1,7-.71,36.22,36.22,0,0,1,3.69.8.85.85,0,0,0,1.06-.42.81.81,0,0,0-.46-1,4.24,4.24,0,0,0-.5-.18A22,22,0,0,0,38.2,19.26Zm0-13.11c-1,.09-2,.13-3,.3a28.33,28.33,0,0,0-2.95.75.76.76,0,0,0-.57,1,.81.81,0,0,0,1.12.45L33,8.62a16.68,16.68,0,0,1,10.34,0c.78.24,1.23.16,1.4-.31s-.08-.92-.92-1.2l-.4-.12A19.77,19.77,0,0,0,38.2,6.15Zm0,8.76c-1.11.13-2.24.2-3.34.4a20.82,20.82,0,0,0-2.68.73.71.71,0,0,0-.46.94.77.77,0,0,0,1,.52,3.88,3.88,0,0,0,.45-.14,16.53,16.53,0,0,1,8.11-.52c.81.15,1.6.41,2.39.63.41.11.83.11,1-.3a1.25,1.25,0,0,0-.07-.91c-.08-.18-.39-.28-.62-.36A20.34,20.34,0,0,0,38.18,14.91Zm.1,8.87a18,18,0,0,0-5.56.82,1.61,1.61,0,0,0-.7.32,1,1,0,0,0-.32.75,1.21,1.21,0,0,0,.61.61c.17.08.44,0,.65-.09a16,16,0,0,1,7.32-.69,31.82,31.82,0,0,1,3.32.75c.53.13.95,0,1.11-.41a.82.82,0,0,0-.56-1.08c-.2-.08-.4-.14-.6-.2A17.48,17.48,0,0,0,38.28,23.78Z"/><path class="cls-2" d="M38.19,10.61a17.29,17.29,0,0,1,5.39.78,3.79,3.79,0,0,1,.73.28.78.78,0,0,1-.58,1.44c-.88-.24-1.75-.53-2.64-.68a16.35,16.35,0,0,0-8.15.6c-.1,0-.2.07-.3.09a.75.75,0,0,1-.93-.49.68.68,0,0,1,.36-.93,6.12,6.12,0,0,1,1.44-.49c1.54-.28,3.1-.51,4.65-.76Z"/><path class="cls-2" d="M38.2,19.26a22,22,0,0,1,5.55,1,4.24,4.24,0,0,1,.5.18.81.81,0,0,1,.46,1,.85.85,0,0,1-1.06.42,36.22,36.22,0,0,0-3.69-.8,15.64,15.64,0,0,0-7,.71,1.69,1.69,0,0,1-.61.14.66.66,0,0,1-.71-.64,1,1,0,0,1,.42-.79,8.26,8.26,0,0,1,2-.64C35.46,19.61,36.83,19.45,38.2,19.26Z"/><path class="cls-2" d="M38.2,6.15a19.77,19.77,0,0,1,5.19.79l.4.12c.84.28,1.13.66.92,1.2s-.62.55-1.4.31A16.68,16.68,0,0,0,33,8.62l-.15.05a.81.81,0,0,1-1.12-.45.76.76,0,0,1,.57-1,28.33,28.33,0,0,1,2.95-.75C36.2,6.28,37.21,6.24,38.2,6.15Z"/><path class="cls-2" d="M38.18,14.91a20.34,20.34,0,0,1,5.75,1c.23.08.54.18.62.36a1.25,1.25,0,0,1,.07.91c-.18.41-.6.41-1,.3-.79-.22-1.58-.48-2.39-.63a16.53,16.53,0,0,0-8.11.52,3.88,3.88,0,0,1-.45.14.77.77,0,0,1-1-.52.71.71,0,0,1,.46-.94,20.82,20.82,0,0,1,2.68-.73C35.94,15.11,37.07,15,38.18,14.91Z"/><path class="cls-2" d="M38.28,23.78a17.48,17.48,0,0,1,5.27.78c.2.06.4.12.6.2a.82.82,0,0,1,.56,1.08c-.16.41-.58.54-1.11.41a31.82,31.82,0,0,0-3.32-.75,16,16,0,0,0-7.32.69c-.21.06-.48.17-.65.09a1.21,1.21,0,0,1-.61-.61,1,1,0,0,1,.32-.75,1.61,1.61,0,0,1,.7-.32A18,18,0,0,1,38.28,23.78Z"/></g></g></svg>