<svg xmlns="http://www.w3.org/2000/svg" viewBox="0 0 45.11 46"><defs><style>.cls-1{fill:#009cbc;}.cls-2{fill:#e1fbff;}</style></defs><title>Documentation</title><g id="Layer_2" data-name="Layer 2"><g id="Layer_1-2" data-name="Layer 1"><path class="cls-1" d="M39.63,44.44c0,.32,0,.57,0,.82a.67.67,0,0,1-.69.73,3.2,3.2,0,0,1-.44,0H6.2c-1,0-1.06-.09-1.18-1.08-.3-2.47-.62-4.93-.93-7.4-.4-3.22-.81-6.44-1.21-9.66s-.81-6.41-1.21-9.62S.86,11.8.45,8.58C.32,7.49.19,6.41,0,5.33c-.12-.9,0-1.11.9-1.22C4,3.72,7,3.33,10.07,3c.32,0,.43-.15.44-.47,0-.54.07-1.07.13-1.61s.28-.85.93-.8c1.95.15,3.9.32,5.86.49,2.23.19,4.47.44,6.71.56A15.23,15.23,0,0,0,26.81.85C29,.57,31.23.28,33.45,0c.53-.07.81.18.88.71s.11.86.17,1.31l3.38.29,6.49.55c.56,0,.78.31.74.9-.19,2.27-.39,4.54-.58,6.8-.23,2.66-.45,5.31-.68,8q-.39,4.49-.77,9t-.76,8.86l-.63,7.47a.71.71,0,0,1-.83.69C40.47,44.53,40.09,44.48,39.63,44.44Zm-1.35.19v-21a2.26,2.26,0,0,1,0-.45.64.64,0,0,1,.67-.59.63.63,0,0,1,.66.6,2.26,2.26,0,0,1,0,.45V43.08l.76.05q1.66-19.49,3.32-38.95L34.66,3.4l.13.79h3.89c.76,0,1,.2,1,1V33.46a2,2,0,0,1,0,.35.62.62,0,0,1-.63.59.64.64,0,0,1-.7-.56,2.24,2.24,0,0,1,0-.45V5.58H6.43V44.63ZM5,5l-3.59.46L5,33.61H5Zm28.38-.78-.34-2.74L11.73,4.11v.06ZM12,1.47l-.1,1.26L17.4,2v-.1Z"/><path class="cls-2" d="M38.28,44.63H6.43V5.58H38.28V19.77a2.24,2.24,0,0,0,0,.45.64.64,0,0,0,.7.56.62.62,0,0,0,.63-.58,2.17,2.17,0,0,0,0-.36V5.15c0-.76-.19-1-1-1H34.79l-.13-.79,9.05.78q-1.66,19.5-3.32,39l-.76-.05V23.67a2.26,2.26,0,0,0,0-.45.63.63,0,0,0-.66-.6.64.64,0,0,0-.67.59,2.26,2.26,0,0,0,0,.45v21ZM21.57,20.8V12.28c0-.65-.25-.88-.91-.87a10.06,10.06,0,1,0,4.12,19.34c.81-.34,1.57-.84,2.39-1.28.3.49.65,1,1,1.55a1,1,0,0,0,.95.53c1.75,0,3.5,0,5.26,0,.34,0,.68,0,1,0a.67.67,0,0,0,.09-1.32,2.26,2.26,0,0,0-.45,0H30.83a3.57,3.57,0,0,1-1.58-.08c-.42-.25-.62-.89-.93-1.34a.39.39,0,0,1,.05-.58A9.88,9.88,0,0,0,31,21.94c.05-.92-.14-1.14-1.05-1.14H21.57Zm9.13-9.55c.39-.6.79-1.17,1.17-1.77a.61.61,0,0,1,.61-.33c.91,0,1.82,0,2.73,0,.52,0,.83-.3.81-.7s-.32-.65-.81-.65c-1.08,0-2.16,0-3.23,0a1,1,0,0,0-1,.52c-.43.7-.9,1.37-1.34,2h-.09a2.39,2.39,0,0,1-.34-.21,10,10,0,0,0-5.16-1.59c-.78,0-1,.19-1,1v8.75c0,.81.19,1,1,1h8.76c.81,0,1-.23,1-1.06A9.84,9.84,0,0,0,31.34,12ZM14,37.42c-1.51,0-3,0-4.53,0-.53,0-.84.27-.84.68s.32.65.84.68h8.93a1,1,0,0,0,.52-.07c.19-.17.44-.43.43-.64s-.27-.45-.48-.6-.34,0-.52,0ZM19.44,41H15.22c-.48,0-.75.23-.77.63s.25.68.74.72h7.9a4,4,0,0,0,.85,0,.64.64,0,0,0,.48-.86.72.72,0,0,0-.76-.44Zm1.41-5.89h2.78c.54,0,.82-.24.82-.67s-.28-.68-.82-.68H18.16c-.54,0-.82.26-.82.68s.28.67.82.67Zm-8.63,0H15c.52,0,.83-.26.83-.67s-.31-.68-.83-.68H9.49c-.52,0-.84.28-.84.68s.32.67.84.67Zm-1.43,7.24h0c.46,0,.92,0,1.39,0a.68.68,0,0,0,.72-.69c0-.39-.3-.64-.76-.65H9.45c-.49,0-.79.27-.8.66s.31.67.79.69Zm11.93-5h0c-.36,0-.72,0-1.08,0a.66.66,0,0,0-.7.66.64.64,0,0,0,.65.67c.74,0,1.49,0,2.23,0a.6.6,0,0,0,.63-.67.62.62,0,0,0-.66-.65C23.43,37.41,23.07,37.43,22.72,37.43Z"/><path class="cls-2" d="M5,5V33.61H5L1.42,5.41Z"/><path class="cls-2" d="M33.39,4.17H11.74V4.11L33.05,1.43Z"/><path class="cls-2" d="M12,1.47l5.45.46V2l-5.55.7Z"/><path class="cls-1" d="M21.57,20.8h8.34c.91,0,1.1.22,1.05,1.14a9.88,9.88,0,0,1-2.59,6.25.39.39,0,0,0-.05.58c.31.45.51,1.09.93,1.34a3.57,3.57,0,0,0,1.58.08H35a2.26,2.26,0,0,1,.45,0,.67.67,0,0,1-.09,1.32c-.35,0-.69,0-1,0-1.76,0-3.51,0-5.26,0a1,1,0,0,1-.95-.53c-.31-.54-.66-1.06-1-1.55-.82.44-1.58.94-2.39,1.28a10.06,10.06,0,1,1-4.12-19.34c.66,0,.91.22.91.87V20.8Zm-1.35-8a8.62,8.62,0,0,0-7.76,6.45,8.75,8.75,0,0,0,4.32,9.87,8.59,8.59,0,0,0,9.58-1c-.08-.13-.16-.28-.25-.41-.48-.78-1-1.55-1.44-2.33a.64.64,0,0,1,.18-.91.69.69,0,0,1,.95.19c.09.12.16.25.24.37l1.35,2.17a8.65,8.65,0,0,0,2.19-5.11H21.21c-.79,0-1-.21-1-1V12.84Z"/><path class="cls-1" d="M30.7,11.25l.64.71a9.84,9.84,0,0,1,2.51,6.24c0,.83-.17,1.06-1,1.06H24.11c-.82,0-1-.19-1-1V9.51c0-.79.2-1,1-1a10,10,0,0,1,5.16,1.59,2.39,2.39,0,0,0,.34.21h.09c.44-.66.91-1.33,1.34-2a1,1,0,0,1,1-.52c1.07,0,2.15,0,3.23,0,.49,0,.8.25.81.65s-.29.69-.81.7c-.91,0-1.82,0-2.73,0a.61.61,0,0,0-.61.33C31.49,10.08,31.09,10.65,30.7,11.25Zm-.77,1.18-.28.39c-.43.63-.79.8-1.17.55s-.39-.65.05-1.32c.12-.17.22-.34.35-.54a8.62,8.62,0,0,0-4.4-1.59v8h8A8.61,8.61,0,0,0,29.93,12.43Z"/><path class="cls-1" d="M14,37.42h4.35c.18,0,.4,0,.52,0s.47.39.48.6-.24.47-.43.64a1,1,0,0,1-.52.07H9.49c-.52,0-.84-.28-.84-.68s.31-.67.84-.68C11,37.41,12.51,37.42,14,37.42Z"/><path class="cls-1" d="M19.44,41h4.22a.72.72,0,0,1,.76.44.64.64,0,0,1-.48.86,4,4,0,0,1-.85,0h-7.9c-.49,0-.76-.31-.74-.72s.29-.63.77-.63Z"/><path class="cls-1" d="M20.85,35.15H18.16c-.54,0-.83-.24-.82-.67s.28-.68.82-.68h5.47c.54,0,.82.26.82.68s-.28.67-.82.67Z"/><path class="cls-1" d="M12.22,35.15H9.49c-.52,0-.84-.26-.84-.67s.32-.68.84-.68H15c.52,0,.83.28.83.68s-.31.67-.83.67Z"/><path class="cls-1" d="M10.79,42.39H9.44c-.48,0-.79-.3-.79-.69S9,41,9.45,41h2.69c.46,0,.75.26.76.65a.68.68,0,0,1-.72.69c-.47,0-.93,0-1.39,0Z"/><path class="cls-1" d="M22.72,37.43c.35,0,.71,0,1.07,0a.62.62,0,0,1,.66.65.6.6,0,0,1-.63.67c-.74,0-1.49,0-2.23,0a.64.64,0,0,1-.65-.67.66.66,0,0,1,.7-.66c.36,0,.72,0,1.08,0Z"/><path class="cls-2" d="M20.22,12.84v8.34c0,.77.2,1,1,1h8.37a8.65,8.65,0,0,1-2.19,5.11L26,25.1c-.08-.12-.15-.25-.24-.37a.69.69,0,0,0-.95-.19.64.64,0,0,0-.18.91c.47.78,1,1.55,1.44,2.33.09.13.17.28.25.41a8.59,8.59,0,0,1-9.58,1,8.75,8.75,0,0,1-4.32-9.87A8.62,8.62,0,0,1,20.22,12.84Z"/><path class="cls-2" d="M29.93,12.43a8.61,8.61,0,0,1,2.54,5.44h-8v-8a8.62,8.62,0,0,1,4.4,1.59c-.13.2-.23.37-.35.54-.44.67-.46,1-.05,1.32s.74.08,1.17-.55Z"/></g></g></svg>