<svg xmlns="http://www.w3.org/2000/svg" viewBox="0 0 39.46 50"><defs><style>.cls-1{fill:#e1fbff;}.cls-2,.cls-3{fill:#009cbb;}.cls-3{fill-rule:evenodd;}</style></defs><title>Knowledge Base</title><g id="Layer_2" data-name="Layer 2"><g id="Layer_1-2" data-name="Layer 1"><path class="cls-1" d="M22.6,47.88l-1.41,1.41H18.36L17,47.88V45.76H22.6Z"/><path class="cls-1" d="M18.36,45.76H2.82V43.64H16.24Z"/><path class="cls-1" d="M21.19,45.76H36.72V43.64H23.31Z"/><path class="cls-1" d="M36.72,21v22.6H23.31l-2.12,2.12H18.36l-2.12-2.12H2.82V21Z"/><rect class="cls-2" x="27.54" y="26.03" width="1.41" height="1.32"/><rect class="cls-2" x="30.37" y="26.03" width="1.41" height="1.32"/><rect class="cls-2" x="33.19" y="26.03" width="1.41" height="1.32"/><rect class="cls-2" x="5.65" y="26.03" width="1.41" height="1.32"/><rect class="cls-2" x="8.47" y="26.03" width="1.41" height="1.32"/><rect class="cls-2" x="11.3" y="26.03" width="1.41" height="1.32"/><path class="cls-1" d="M29,14.69a9.19,9.19,0,1,1-9.19-9.18A9.19,9.19,0,0,1,29,14.69Z"/><path class="cls-2" d="M37.34,22.55V20.43H29v1.32H36V43H23l-2.12,2.11h-.52V37.29H19.07v7.85h-.43L16.52,43H3.44V21.75h7.15V20.43H2.12v2.12H0v26H16.68L18.09,50h3.37l1.41-1.41H39.46v-26ZM16.24,47.26H1.32V23.87h.8v22.6H16.24ZM3.44,45.14v-.79H16l.79.79Zm18.45,2.47-1,1.07H18.64l-1.07-1.07V46.47h4.32Zm.9-2.47.79-.79H36v.79Zm15.35,2.12H23.22v-.79H37.34V23.87h.8Z"/><rect class="cls-2" x="5.65" y="28.9" width="7.06" height="1.32"/><rect class="cls-2" x="5.65" y="31.73" width="9.18" height="1.32"/><path class="cls-2" d="M5.65,38.7H16.24V37.38H7v-1.5h7.86V34.55H5.65Z"/><path class="cls-2" d="M23.31,37.38V38.7H34.52V34.55h-9.8v1.33h8.47v1.5Z"/><rect class="cls-2" x="26.84" y="28.9" width="7.77" height="1.32"/><rect class="cls-2" x="24.72" y="31.73" width="9.89" height="1.32"/><path class="cls-2" d="M16.24,23.89v2.19H14.12v4.15h2.12v4.23a1.45,1.45,0,0,0,1.42,1.42h4.23a1.38,1.38,0,0,0,1.33-1.42V30.23h2.12V26.08H23.22V23.89a9.83,9.83,0,0,0-3.46-19,9.84,9.84,0,0,0-3.52,19Zm5.65,10.66H17.66a.14.14,0,0,1-.09-.09V33.05h4.32v1.41s0,.09,0,.09Zm-4.32-2.82v-1.5h4.32v1.5ZM24,27.4v1.5H15.45V27.4ZM17,17.56a.75.75,0,1,1,.75-.75.76.76,0,0,1-.75.75Zm.62,6.73a13.61,13.61,0,0,0,1.5.22v1.57h-1.5Zm2.82,1.79V24.51a9.31,9.31,0,0,0,1.5-.22v1.79Zm2.21-8.52a.75.75,0,1,1,.75-.75.76.76,0,0,1-.75.75ZM19.77,6.17a8.51,8.51,0,0,1,3.45,16.29V18.77a2,2,0,0,0,1.43-2,2.08,2.08,0,1,0-2.76,2v4.16a8.07,8.07,0,0,1-2.16.28,8.58,8.58,0,0,1-2.16-.28V18.77a2,2,0,0,0,1.43-2,2.08,2.08,0,1,0-2.76,2v3.69A8.52,8.52,0,0,1,19.77,6.17Z"/><path class="cls-3" d="M27.19,6.25a.67.67,0,0,0,.95,0L29.42,5a.67.67,0,0,0-.93-1L27.21,5.31a.66.66,0,0,0,0,.94Z"/><path class="cls-3" d="M12.65,5.08,11.41,3.79a.68.68,0,0,0-.95,0,.67.67,0,0,0,0,1L11.69,6a.66.66,0,0,0,.94,0,.66.66,0,0,0,0-.94Z"/><path class="cls-3" d="M19.3,2.44a.67.67,0,0,0,.66.68.66.66,0,0,0,.68-.66l0-1.78a.67.67,0,0,0-1.34,0Z"/><path class="cls-3" d="M8.19,12.56l-1.78,0a.66.66,0,0,0-.68.65.67.67,0,0,0,.19.48.71.71,0,0,0,.47.21l1.78,0a.67.67,0,0,0,0-1.34Z"/><path class="cls-3" d="M30.28,14.06a.67.67,0,0,0,.47.2l1.78,0a.67.67,0,0,0,.68-.66.66.66,0,0,0-.65-.68l-1.79,0a.67.67,0,0,0-.68.66.71.71,0,0,0,.19.48Z"/><path class="cls-3" d="M20.2,24.69a.68.68,0,0,0-.66-.68.66.66,0,0,0-.68.66l0,1.78a.67.67,0,0,0,.19.48.66.66,0,0,0,.47.2.67.67,0,0,0,.68-.66Z"/></g></g></svg>