<svg xmlns="http://www.w3.org/2000/svg" viewBox="0 0 54 41.4">
    <defs>
        <style>
            .cls-1 {
                fill: #e1fbff;
            }

            .cls-2 {
                fill: #009cbc;
            }
        </style>
    </defs>
    <title>Lithium</title>
    <g id="Layer_2" data-name="Layer 2">
        <g id="Layer_1-2" data-name="Layer 1">
            <polygon style="fill: #e1fbff" points="44.72 3.82 42.19 5.51 40.5 8.04 40.5 10.57 42.19 12.26 42.19 13.95 40.5 15.64 37.13 15.64 35.92 15.64 35.44 23.23 53.16 23.23 53.16 16.48 49.78 14.79 48.09 14.79 48.09 13.11 48.94 11.42 49.78 8.89 48.94 6.36 47.25 4.67 44.72 3.82"
            />
            <path style="fill: #e1fbff" d="M27,1.29l-2.53.85L22.78,3.82,21.73,6.57,23.63,8V9.73l.84,1.69-3.38.84H19.41l-1.69,2.53.11,2.89v5.55H35.44l.84-5.06-.84-5.91-1.69-.84-4.22-.85V9.73c0-.84,1.69-2.53,1.69-2.53s1.69-2.53.84-2.53-1.68-2.53-1.68-2.53Z"
            />
            <path style="fill: #e1fbff" d="M8.44,4.67C7.59,4.67,4.22,8,4.22,8l.84,3.38L6.75,14l-.84,1.69H1.69l-.85,5.9S0,23.23.84,23.23h17l-.11-6.75V14.79H12.66l-.85-1.68.85-.85V8.89L13.5,7.2,11.81,5.51Z"
            />
            <path style="fill: #e1fbff" d="M27.84,26.61H40.5v11l-.84.85L27.84,41,17.72,36.73l-5.91-5.91,1.69-1.68,3.38.84,1.68,1.69,2.53,1.69h13.5v-.85l-.84-.84v-.85H31.22L28.69,30,27,28.29Z"
            />
            <path class="cls-2" d="M34.2,10.8H30.6V9.42a5.45,5.45,0,0,0,1.8-4,5.4,5.4,0,1,0-9,4V10.8H19.8a2.7,2.7,0,0,0-2.7,2.7v9.9a.9.9,0,0,0,.9.9H36a.9.9,0,0,0,.9-.9V13.5A2.7,2.7,0,0,0,34.2,10.8Zm.9,11.7H18.9v-9a.9.9,0,0,1,.9-.9h4.5a.9.9,0,0,0,.9-.9V9a.9.9,0,0,0-.36-.72A3.6,3.6,0,1,1,30.6,5.4a3.64,3.64,0,0,1-1.44,2.88A.9.9,0,0,0,28.8,9v2.7a.9.9,0,0,0,.9.9h4.5a.9.9,0,0,1,.9.9Z"
            />
            <path class="cls-2" d="M11.16,11.88a.9.9,0,0,0-.36.72v2.7a.9.9,0,0,0,.9.9h6.13V14.4H12.6V13a5.45,5.45,0,0,0,1.8-4,5.4,5.4,0,1,0-9,4V14.4H2.7A2.7,2.7,0,0,0,0,17.1v6.3a.9.9,0,0,0,.9.9H17.83V22.5H1.8V17.1a.9.9,0,0,1,.9-.9H6.3a.9.9,0,0,0,.9-.9V12.6a.9.9,0,0,0-.36-.72A3.6,3.6,0,1,1,12.6,9,3.64,3.64,0,0,1,11.16,11.88Z"
            />
            <path class="cls-2" d="M51.3,14.4H48.6V13a5.4,5.4,0,1,0-9-4,5.45,5.45,0,0,0,1.8,4V14.4H35.33v1.8h7a.9.9,0,0,0,.9-.9V12.6a.9.9,0,0,0-.36-.72,3.6,3.6,0,0,1-.13-5.66,3.6,3.6,0,1,1,4.45,5.66.9.9,0,0,0-.36.72v2.7a.9.9,0,0,0,.9.9h3.6a.9.9,0,0,1,.9.9v5.4h-16v1.8H53.1a.9.9,0,0,0,.9-.9V17.1A2.7,2.7,0,0,0,51.3,14.4Z"
            />
            <path class="cls-2" d="M48.6,27.9V26.1H27a.9.9,0,0,0-.9.9,4.51,4.51,0,0,0,4.5,4.5h2.7v1L27,33.29l-7.69-1.71L17.74,30a4.73,4.73,0,0,0-6.68,0,.91.91,0,0,0,0,1.28l6.3,6.3a1.1,1.1,0,0,0,.31.2l9,3.6a.92.92,0,0,0,.33.06h.15L37.87,39.6H48.6V37.8H41.4V27.9Zm-9,9.9h-2L27.1,39.57l-8.59-3.44L13.07,30.7a2.91,2.91,0,0,1,3.39.54l1.8,1.8a.94.94,0,0,0,.45.24l8.1,1.8a.76.76,0,0,0,.3,0l7.2-.9a.9.9,0,0,0,.79-.89V30.6a.9.9,0,0,0-.9-.9H30.6a2.72,2.72,0,0,1-2.55-1.8H39.6Z"
            />
        </g>
    </g>
</svg>