<svg xmlns="http://www.w3.org/2000/svg" xmlns:xlink="http://www.w3.org/1999/xlink" viewBox="0 0 53.87 53.86"><defs><style>.cls-1{fill:none;}.cls-2{clip-path:url(#clip-path);}.cls-3{fill:#e1fbff;}.cls-4{clip-path:url(#clip-path-3);}.cls-5{fill:#009cbc;}</style><clipPath id="clip-path" transform="translate(0 0)"><rect class="cls-1" width="53.87" height="54"/></clipPath><clipPath id="clip-path-3" transform="translate(0 0)"><rect class="cls-1" y="0.02" width="53.84" height="53.98"/></clipPath></defs><title>Lorem</title><g id="Layer_2" data-name="Layer 2"><g id="Layer_1-2" data-name="Layer 1"><g id="Vector_Smart_Object" data-name="Vector Smart Object"><g class="cls-2"><g class="cls-2"><path class="cls-3" d="M43.8,7.76,42.19,7.4l-2.42,1L37.93,9s-2,.37-2.41,0a6.81,6.81,0,0,0-1.4-.73c-.74-.37-1.18-.15-1.62-.88s-.36-.22-.8-1.55a28.06,28.06,0,0,0-1-2.86,5.51,5.51,0,0,0-1.25-1.32s-1.92-.07-2.5,0A18.29,18.29,0,0,0,25.09,2c-.95.22-1.83-.15-2.42.59a5,5,0,0,0-.8,1.83l-.3,1.69a1.8,1.8,0,0,1-.29,1.1,3,3,0,0,1-1,1.32c-.66.51-1,.4-1.9.6s-1.11-.05-1.77,0a2.15,2.15,0,0,1-1.27-.38,12.29,12.29,0,0,0-2.84-1.25c-.8-.07-1-.36-1.83,0A3.24,3.24,0,0,0,9,8.57C8.37,9.3,7.78,10,7.78,10a1.58,1.58,0,0,0-.73,1.24c-.08.88-.3.52,0,1.4A7.76,7.76,0,0,0,7.63,14a6.19,6.19,0,0,1,.59,1.3c.22.75-.78,1.05-.21,1.78s.65.39.58,1.26a4.16,4.16,0,0,1-.22,1.53c-.22.51.29-.15-.22.51s-1,.59-1.25,1.1-.37.37-.88.81a2.69,2.69,0,0,1-1.1.66c-.81.37-1,.22-1.69.66s-.81.22-1.32.81-.66,0-.59,1.17-.33.88,0,1.83a14.08,14.08,0,0,0,.53,2c.36.81.29.81.88,1.18a9.22,9.22,0,0,1,1,.66,2.06,2.06,0,0,0,.88.44c.59.22,1.1.44,1.1.44l.74.44a2,2,0,0,1,.88.44c.44.37-.07-.66.44.37A26.77,26.77,0,0,1,9,37s.52.39,0,1.59A3.45,3.45,0,0,1,8.07,40c-.66.88-.8.37-.73,1.4a7.64,7.64,0,0,0,.15,1.76,3,3,0,0,0,.66,1.68c.36.59.14.37.88.88a3.58,3.58,0,0,0,1.39.74c.66.22.88.37,1.39.29s.81,0,1.25-.37.44-.66,1.4-1.17,1.32-.88,1.83-.88.73-.22,1.47.22a8.53,8.53,0,0,0,1.76.73,3.3,3.3,0,0,1,1.24.66c.44.44.67.34.89.83A8.38,8.38,0,0,1,22,48.55c.15.74-.06.3.48,1.32s.55,1.62,1.36,2a2.57,2.57,0,0,0,1.39.37c.73.07,1.24.22,1.68,0s-.61.49.89-.44,2.05-.37,2.27-.37a2.54,2.54,0,0,0,.74-.29,4.65,4.65,0,0,0,.29-1.32,2.93,2.93,0,0,1,.44-1.61c.44-1,.66-1.32.81-1.62a1.29,1.29,0,0,1,.58-.66,5.19,5.19,0,0,1,1.1-.59A4.86,4.86,0,0,1,35.52,45a7.38,7.38,0,0,0,1.09.07,4.66,4.66,0,0,1,2,.66,3.47,3.47,0,0,0,1.28.73c.66.3.66.37,1.25.37a2.51,2.51,0,0,0,1-.22,5.61,5.61,0,0,1,1.18-.66c.58-.22.88-.22,1.24-.59a4.32,4.32,0,0,0,.81-1c.22-.37.3-.88.52-1a1.26,1.26,0,0,0,.51-.8,5.41,5.41,0,0,0,0-1.1,8.65,8.65,0,0,0-.37-1.1c-.14-.3-.44-.74-.66-1.25a9.6,9.6,0,0,1-.44-1.47,2.31,2.31,0,0,1-.07-1c.07-.36.22-.47.36-1.08s.37-1.7.37-1.7l.52-1.47c1-.66,1-.81,1.61-.88a5,5,0,0,0,1.17-.29A11.1,11.1,0,0,1,50,30.8a4,4,0,0,0,1.1-.29c.29-.15.66-.15.8-.37a6.08,6.08,0,0,0,.37-1.1,8.59,8.59,0,0,1,0-2c.15-.69-.15-.91,0-1.86a3.25,3.25,0,0,0,0-1.61c-.11-.52,0-.81-.63-.89s-1.39-.14-1.39-.14H48.5l-1.25-.22s-.37-.15-.81-.3.15.22-.44-.14.08.29-.58-.37a7.73,7.73,0,0,1-1-1.1,6,6,0,0,0-.51-1.1,3,3,0,0,1-.44-.94,1.43,1.43,0,0,1,.07-.75c.15-.36.07-.44.29-.8a7.83,7.83,0,0,1,.59-1.1c.29-.37.81-1.1.81-1.1s.59-.74.81-1a1.36,1.36,0,0,0,.36-.81c0-.29.08-1.17-.22-1.54s-.58-.66-1.1-1.39S43.8,7.76,43.8,7.76" transform="translate(0 0)"/></g><g class="cls-4"><path class="cls-5" d="M51.11,21.28l-3.78-.64A21.82,21.82,0,0,0,45.81,17L48,13.85a3.34,3.34,0,0,0-.36-4.29L44.32,6.21a3.3,3.3,0,0,0-4.27-.36L36.92,8.08a21.24,21.24,0,0,0-3.8-1.56l-.63-3.74A3.33,3.33,0,0,0,29.2,0H24.46a3.32,3.32,0,0,0-3.28,2.78l-.66,3.83a20.47,20.47,0,0,0-3.65,1.54l-3.1-2.23a3.31,3.31,0,0,0-4.28.36L6.12,9.63a3.34,3.34,0,0,0-.36,4.29L8,17.08a20.55,20.55,0,0,0-1.49,3.68l-3.74.63A3.32,3.32,0,0,0,0,24.68v4.73A3.32,3.32,0,0,0,2.78,32.7l3.83.65A20.57,20.57,0,0,0,8.15,37L5.93,40.09a3.33,3.33,0,0,0,.36,4.29l3.35,3.35a3.32,3.32,0,0,0,2.36,1,3.24,3.24,0,0,0,1.92-.62l3.16-2.25a20.81,20.81,0,0,0,3.56,1.46l.63,3.79a3.32,3.32,0,0,0,3.28,2.78H29.3a3.33,3.33,0,0,0,3.29-2.78l.64-3.79a21.78,21.78,0,0,0,3.67-1.51L40,48a3.32,3.32,0,0,0,4.29-.36l3.35-3.35A3.33,3.33,0,0,0,48,40l-2.22-3.12a22,22,0,0,0,1.51-3.67l3.79-.63a3.34,3.34,0,0,0,2.78-3.29V24.56a3.28,3.28,0,0,0-2.76-3.28m-.26,8a.28.28,0,0,1-.25.29l-4.72.79a1.51,1.51,0,0,0-1.22,1.12,18,18,0,0,1-2,4.71,1.52,1.52,0,0,0,.07,1.65l2.78,3.92a.3.3,0,0,1,0,.38l-3.36,3.36a.31.31,0,0,1-.21.09.29.29,0,0,1-.17-.06l-3.9-2.78a1.54,1.54,0,0,0-1.66-.07,18,18,0,0,1-4.71,2,1.5,1.5,0,0,0-1.12,1.22l-.8,4.72a.28.28,0,0,1-.29.25H24.56a.29.29,0,0,1-.29-.25l-.79-4.72a1.52,1.52,0,0,0-1.11-1.22,18.89,18.89,0,0,1-4.61-1.89,1.64,1.64,0,0,0-.77-.2,1.51,1.51,0,0,0-.88.28l-3.93,2.8a.44.44,0,0,1-.17.06.3.3,0,0,1-.22-.09L8.44,42.26a.3.3,0,0,1,0-.38L11.17,38a1.55,1.55,0,0,0,.07-1.67,17.84,17.84,0,0,1-2-4.7,1.54,1.54,0,0,0-1.21-1.11l-4.76-.81a.3.3,0,0,1-.25-.3V24.68a.3.3,0,0,1,.25-.3L8,23.6A1.52,1.52,0,0,0,9.2,22.47a18,18,0,0,1,1.93-4.72,1.52,1.52,0,0,0-.08-1.65l-2.8-3.94a.3.3,0,0,1,0-.38l3.35-3.35a.29.29,0,0,1,.22-.09.31.31,0,0,1,.17.05l3.88,2.77a1.54,1.54,0,0,0,1.66.07,17.91,17.91,0,0,1,4.71-2A1.54,1.54,0,0,0,23.38,8l.81-4.76A.29.29,0,0,1,24.48,3h4.74a.28.28,0,0,1,.29.24L30.3,8a1.51,1.51,0,0,0,1.13,1.22,18.34,18.34,0,0,1,4.83,2,1.5,1.5,0,0,0,1.65-.06l3.88-2.79A.29.29,0,0,1,42,8.26a.27.27,0,0,1,.21.09l3.36,3.35a.31.31,0,0,1,0,.39L42.78,16a1.52,1.52,0,0,0-.07,1.65,18.06,18.06,0,0,1,2,4.72,1.5,1.5,0,0,0,1.22,1.11l4.72.8a.29.29,0,0,1,.25.29V29.3Z" transform="translate(0 0)"/></g><g class="cls-2"><path class="cls-5" d="M26.94,15.3A11.63,11.63,0,1,0,38.56,26.93,11.63,11.63,0,0,0,26.94,15.3m0,20.21a8.59,8.59,0,1,1,8.58-8.58,8.59,8.59,0,0,1-8.58,8.58" transform="translate(0 0)"/></g></g></g></g></g></svg>