<svg xmlns="http://www.w3.org/2000/svg" viewBox="0 0 50 49.64"><defs><style>.cls-1{fill:#e1fbff;}.cls-2{fill:#009cbb;}</style></defs><title>NMS Analytics</title><g id="Layer_2" data-name="Layer 2"><g id="Layer_1-2" data-name="Layer 1"><rect class="cls-1" x="14.35" y="46.33" width="21.3" height="2.57"/><polygon class="cls-1" points="31.52 46.33 18.48 46.33 19.07 41.23 30.93 41.23 31.52 46.33"/><path class="cls-1" d="M49.27,34.48V7.2A1.47,1.47,0,0,0,47.8,5.73H2.2A1.47,1.47,0,0,0,.73,7.2V34.48Z"/><rect class="cls-1" x="7.74" y="23.97" width="5.51" height="10.5"/><rect class="cls-1" x="7.74" y="23.97" width="5.51" height="3.03"/><rect class="cls-1" x="7.74" y="27" width="5.51" height="2.99"/><rect class="cls-1" x="17.46" y="14.51" width="5.51" height="19.95"/><rect class="cls-1" x="17.46" y="14.51" width="5.51" height="3.03"/><rect class="cls-1" x="17.46" y="17.54" width="5.51" height="2.99"/><rect class="cls-1" x="27.18" y="23.97" width="5.51" height="10.5"/><rect class="cls-1" x="27.18" y="23.97" width="5.51" height="3.03"/><rect class="cls-1" x="27.18" y="27" width="5.51" height="2.99"/><rect class="cls-1" x="36.9" y="10.34" width="5.51" height="24.12"/><rect class="cls-1" x="36.9" y="10.34" width="5.51" height="3.03"/><rect class="cls-1" x="36.9" y="13.37" width="5.51" height="2.99"/><circle class="cls-1" cx="9.61" cy="15.16" r="2.05"/><circle class="cls-1" cx="19.83" cy="6.06" r="2.05"/><circle class="cls-1" cx="29.54" cy="11.5" r="2.05"/><circle class="cls-1" cx="39.26" cy="2.78" r="2.05"/><path class="cls-2" d="M47.8,5H41a2.78,2.78,0,1,0-4.49-2.19,2.84,2.84,0,0,0,.32,1.3l-1,.89H22.38a2.78,2.78,0,0,0-5.11,0H2.2A2.21,2.21,0,0,0,0,7.17v5.41a.73.73,0,0,0,.73.73.73.73,0,0,0,.74-.73V7.17a.73.73,0,0,1,.73-.73H17.07a2.59,2.59,0,0,0,.24.79l-6.18,5.6a2.82,2.82,0,0,0-1.52-.45,2.78,2.78,0,1,0,2.78,2.78,2.69,2.69,0,0,0-.29-1.23l6.16-5.58a2.71,2.71,0,0,0,1.57.49,2.77,2.77,0,0,0,2-.86l5,3a2.51,2.51,0,0,0-.06.55,2.78,2.78,0,1,0,5.33-1.12l4.3-3.94H47.8a.73.73,0,0,1,.73.73V25.28a.74.74,0,0,0,1.47,0V7.17A2.21,2.21,0,0,0,47.8,5ZM9.61,16.47a1.32,1.32,0,1,1,1.32-1.31A1.31,1.31,0,0,1,9.61,16.47Zm10.22-9.1a1.31,1.31,0,1,1,1.31-1.31A1.32,1.32,0,0,1,19.83,7.37Zm9.71,5.44a1.31,1.31,0,1,1,1.32-1.31A1.31,1.31,0,0,1,29.54,12.81Zm1.62-3.57a2.77,2.77,0,0,0-3.68.4L22.53,6.7a2.38,2.38,0,0,0,0-.26H34.22Zm8.1-5.15a1.31,1.31,0,1,1,1.32-1.31A1.31,1.31,0,0,1,39.26,4.09Z"/><path class="cls-2" d="M49.27,27.47a.74.74,0,0,0-.74.74v5.51H43.14V10.34a.73.73,0,0,0-.73-.73H36.9a.73.73,0,0,0-.74.73V33.72H33.42V24a.74.74,0,0,0-.73-.74H27.18a.73.73,0,0,0-.73.74v9.75H23.71V14.51a.73.73,0,0,0-.74-.73H17.46a.73.73,0,0,0-.73.73V24.63a.73.73,0,0,0,1.46,0V21.26h4V33.72h-4V27.56a.73.73,0,0,0-1.46,0v6.16H14V24a.74.74,0,0,0-.73-.74H7.74A.74.74,0,0,0,7,24v9.75H1.47V15.51a.74.74,0,0,0-1.47,0V34.45H0v5.3A2.21,2.21,0,0,0,2.2,42H18.25l-.42,3.64H14.35a.73.73,0,0,0-.73.73V48.9a.73.73,0,0,0,.73.74h21.3a.73.73,0,0,0,.73-.74V46.33a.73.73,0,0,0-.73-.73H32.17L31.75,42h16a2.21,2.21,0,0,0,2.2-2.2v-5.3h0V28.21A.74.74,0,0,0,49.27,27.47Zm-27-12.23v1.57h-4V15.24Zm-4,4.56V18.27h4V19.8Zm19.44-5.7h4v1.53h-4Zm4-3v1.57h-4V11.07Zm-4,6h4V33.72h-4ZM27.91,27.73H32v1.52H27.91Zm4.05-3v1.56H27.91V24.7Zm-4.05,6H32v3H27.91Zm-19.43-3h4v1.52h-4Zm4-3v1.56h-4V24.7Zm-4,6h4v3h-4ZM34.92,47.07v1.1H15.08v-1.1H34.92ZM19.3,45.6,19.72,42H30.28l.42,3.64Zm29.23-5.84a.72.72,0,0,1-.73.73H2.2a.72.72,0,0,1-.73-.73V35.21H48.53Z"/></g></g></svg>