<svg xmlns="http://www.w3.org/2000/svg" xmlns:xlink="http://www.w3.org/1999/xlink" viewBox="0 0 54 47.25">
    <defs>
        <clipPath id="clip-path" transform="translate(0 0)">
            <rect style="fill: none" width="54" height="47.25" />
        </clipPath>
    </defs>
    <title>SAN Health</title>
    <g id="Layer_2" data-name="Layer 2">
        <g id="Layer_1-2" data-name="Layer 1">
            <g id="Vector_Smart_Object" data-name="Vector Smart Object">
                <g style="clip-path: url(#clip-path);">
                    <g style="clip-path: url(#clip-path)">
                        <path style="fill: #e1fbff" d="M41.46,2H36.17l-2.7,1.12-3,2.25L28.24,7S27.17,8.1,26.38,8.16a5.9,5.9,0,0,1-3-1.13c-.39-.45-4.67-3.71-4.67-3.71l-3.54-.84L9.45,2,5.68,4.11,3.49,6.64S2,9.45,1.91,9.79s-.45,3.77-.45,3.77L2.7,19l.79,2.81,9.17,10.69L25.71,44.94l.9.9a6.63,6.63,0,0,0,1.51-.67c.17-.23,10-9.68,10-9.68l8.38-8.55,3.94-6.41s2.14-4.16,2.19-4.39-.28-6.8-.28-6.8L48.77,4.05,44.21,2Z"
                            transform="translate(0 0)" />
                        <path style="fill: #009cbc" d="M39.15,0A14.22,14.22,0,0,1,54,14.19c0,5.69-3.84,11-8.9,16.29S33.63,41.19,28,46.88a1.41,1.41,0,0,1-1.9,0C20.37,41.19,14,35.8,8.9,30.48S0,19.88,0,14.19A13.86,13.86,0,0,1,14.18,0C19.39,0,23.76,4.31,27,7,30.53,3.92,34.71.08,39.15,0m0,2.7c-4.86.53-7.89,4.37-11.31,7.14a1.38,1.38,0,0,1-1.68,0C22.66,7,18,2.7,14.18,2.7,8.05,2.7,2.7,6.76,2.7,14.19c0,4.43,3.24,9.26,8.14,14.41,4.64,4.88,10.62,10,16.16,15.45C32.54,38.6,38.52,33.48,43.16,28.6c1.38-1.46,2.63-2.88,3.71-4.28h-1a1.37,1.37,0,0,1-1.14-.64L43.09,21l-2,8.34a1.35,1.35,0,0,1-2.63,0L36.09,18.11,34.4,31.24a1.35,1.35,0,0,1-2.63.19l-1.86-6.67L29,29.3a1.37,1.37,0,0,1-1.14,1.07,1.41,1.41,0,0,1-1.39-.73L24.15,25H19.2a2.7,2.7,0,1,1,0-2.7H25a1.39,1.39,0,0,1,1.2.74l.95,1.88,1.24-6.27A1.35,1.35,0,0,1,31,18.53l1.58,5.74L34.45,9.94A1.41,1.41,0,0,1,36,8.78,1.38,1.38,0,0,1,37.1,9.84l2.79,13,1.33-5.61a1.35,1.35,0,0,1,2.44-.41l3,4.77h2.13a14.37,14.37,0,0,0,2.53-7.42c0-6.83-6-11.4-12.15-11.49"
                            transform="translate(0 0)" />
                    </g>
                </g>
            </g>
        </g>
    </g>
</svg>