<svg xmlns="http://www.w3.org/2000/svg" viewBox="0 0 50 49.99"><defs><style>.cls-1{fill:#069bbb;}.cls-2{fill:#e1fbff;}.cls-3{fill:#fff;}</style></defs><title>Service Now</title><g id="Layer_2" data-name="Layer 2"><g id="Layer_1-2" data-name="Layer 1"><path class="cls-1" d="M7.3,12.5H1.46C.34,12.5,0,12.16,0,11.05V1.38C0,.37.37,0,1.38,0H48.64c1,0,1.36.37,1.36,1.36v9.81c0,.95-.39,1.33-1.34,1.33h-6v.66q0,15.54,0,31.1a2.1,2.1,0,0,1-.7,1.67c-1.17,1.13-2.31,2.3-3.46,3.45-.81.81-1.29.82-2.09,0l-3.12-3.14-3.13,3.14c-.81.81-1.27.81-2.09,0L25,46.27c-.14.12-.26.22-.37.33l-2.9,2.9a1.12,1.12,0,0,1-1.85,0l-3.24-3.25-2.15,2.15c-.38.38-.75.76-1.14,1.14a1.09,1.09,0,0,1-1.78,0C10.32,48.26,9.05,47,7.77,45.71a1.65,1.65,0,0,1-.48-1.28c0-3.66,0-7.32,0-11q0-10.19,0-20.36Zm13.47,35,.11-.06q1.62-1.59,3.22-3.2a1.1,1.1,0,0,1,1.78,0l1.21,1.21,2.05,2.1c.87-.87,1.67-1.68,2.48-2.48,1.71-1.71,1.71-1.71,3.4,0l2.21,2.2a2.81,2.81,0,0,0,.31.25c.92-.92,1.8-1.83,2.71-2.72a1.12,1.12,0,0,0,.38-.88q0-17.53,0-35.06c0-.14,0-.28,0-.44H9.38V9q0,16.54,0,33.1a6.28,6.28,0,0,0,.08,2.22c.26.63,1,1.07,1.49,1.59L12.5,47.5l3.12-3.13c.81-.82,1.29-.82,2.09,0Zm23-41.25c0-.34,0-.66,0-1a1,1,0,0,1,1.05-1,1,1,0,0,1,1,1.08c0,.63,0,1.27,0,1.9a1,1,0,0,1-1.15,1.15c-.53,0-1.07,0-1.61,0-.28,0-.37.1-.36.37,0,.42,0,.85,0,1.27s.1.48.47.47c1.41,0,2.83,0,4.25,0,.4,0,.52-.11.52-.52q0-3.6,0-7.22c0-.49-.12-.62-.62-.62H2.6l-.49,0v8.29H7.29c0-.63,0-1.22,0-1.82,0-.08-.21-.22-.33-.23-.53,0-1.07,0-1.61,0A1,1,0,0,1,4.18,7.14c0-.6,0-1.21,0-1.81S4.6,4.17,5.23,4.19a1,1,0,0,1,1,1.13c0,.31,0,.61,0,.9Z"/><path class="cls-2" d="M20.77,47.47l-3.06-3.11c-.8-.81-1.28-.81-2.09,0L12.5,47.5,11,45.94c-.52-.52-1.23-1-1.49-1.59a6.28,6.28,0,0,1-.08-2.22q0-16.55,0-33.1V8.36H40.6c0,.16,0,.3,0,.44q0,17.53,0,35.06a1.12,1.12,0,0,1-.38.88c-.91.89-1.79,1.8-2.71,2.72a2.81,2.81,0,0,1-.31-.25L35,45c-1.69-1.69-1.69-1.69-3.4,0-.81.8-1.61,1.61-2.48,2.48l-2.05-2.1L25.88,44.2a1.1,1.1,0,0,0-1.78,0q-1.61,1.6-3.22,3.2Zm-2-19.35c0-.63,0-1.27,0-1.9A1.09,1.09,0,0,0,17.55,25c-1.29,0-2.57,0-3.86,0a1.08,1.08,0,0,0-1.19,1.18c0,1.28,0,2.57,0,3.85a1.09,1.09,0,0,0,1.2,1.22c1.29,0,2.57,0,3.86,0A1.08,1.08,0,0,0,18.75,30C18.76,29.39,18.75,28.76,18.75,28.12Zm0,9.38h0V35.65c0-.86-.4-1.27-1.25-1.27q-1.87,0-3.75,0A1.09,1.09,0,0,0,12.5,35.6c0,1.27,0,2.54,0,3.8a1.09,1.09,0,0,0,1.2,1.22c1.29,0,2.57,0,3.86,0a1.08,1.08,0,0,0,1.19-1.22C18.76,38.77,18.75,38.13,18.75,37.5Zm11-8.33h-6.6a1.17,1.17,0,0,0-1,.43A1,1,0,0,0,22,30.66a1.07,1.07,0,0,0,1.05.59H36.28a1.07,1.07,0,0,0,1.21-1.05c0-.6-.46-1-1.18-1H29.72Zm0,11.45h4.25c.83,0,1.66,0,2.49,0a1,1,0,1,0,0-2.07H23.33a4.61,4.61,0,0,0-.53,0,1,1,0,0,0-.89.84c-.15.68.39,1.21,1.22,1.21C25.31,40.63,27.49,40.62,29.67,40.62ZM26,36.45h0c1,0,2,0,3.07,0a1,1,0,0,0,1.09-1,1,1,0,0,0-1.09-1.06c-2.05,0-4.09,0-6.14,0a1.38,1.38,0,0,0-.91.52A1,1,0,0,0,23,36.44C24,36.47,25,36.45,26,36.45Zm7.8-9.37h2.39a1.69,1.69,0,0,0,.67-.11,1,1,0,0,0,.57-1.11,1,1,0,0,0-1.1-.85c-1.64,0-3.28,0-4.93,0a1.07,1.07,0,0,0-1.21,1c0,.63.47,1,1.22,1S33,27.08,33.83,27.08Zm-8.86,0h0c.67,0,1.34,0,2,0a1.05,1.05,0,0,0,1.15-1A1.07,1.07,0,0,0,27,25q-1.95,0-3.9,0a1,1,0,1,0,0,2.08C23.67,27.09,24.32,27.08,25,27.08Zm9.92,9.37H36.4a1.06,1.06,0,0,0,1.09-1,1,1,0,0,0-1.06-1c-1,0-2,0-3.07,0a1,1,0,1,0,0,2.06C33.88,36.46,34.39,36.45,34.89,36.45Z"/><path class="cls-2" d="M43.75,6.22H6.25c0-.29,0-.59,0-.9a1,1,0,0,0-1-1.13c-.63,0-1,.42-1.05,1.14s0,1.21,0,1.81A1,1,0,0,0,5.34,8.32c.54,0,1.08,0,1.61,0,.12,0,.32.15.33.23,0,.6,0,1.19,0,1.82H2.11V2.1l.49,0H47.31c.5,0,.63.13.62.62q0,3.62,0,7.22c0,.41-.12.53-.52.52-1.42,0-2.84,0-4.25,0-.37,0-.49-.11-.47-.47s0-.85,0-1.27c0-.27.08-.38.36-.37.54,0,1.08,0,1.61,0a1,1,0,0,0,1.15-1.15c0-.63,0-1.27,0-1.9a1,1,0,0,0-1-1.08,1,1,0,0,0-1.05,1C43.73,5.56,43.75,5.88,43.75,6.22Z"/><path class="cls-1" d="M18.75,28.12c0,.64,0,1.27,0,1.9a1.08,1.08,0,0,1-1.19,1.23c-1.29,0-2.57,0-3.86,0A1.09,1.09,0,0,1,12.5,30c0-1.28,0-2.57,0-3.85A1.08,1.08,0,0,1,13.69,25c1.29,0,2.57,0,3.86,0a1.09,1.09,0,0,1,1.2,1.22C18.76,26.85,18.75,27.49,18.75,28.12Zm-2.08,1.05c0-.65,0-1.25,0-1.84a.41.41,0,0,0-.31-.24c-.56,0-1.13,0-1.69,0,0,.57-.07,1.15-.07,1.72a.41.41,0,0,0,.24.31C15.42,29.18,16,29.17,16.67,29.17Z"/><path class="cls-1" d="M18.75,37.5c0,.63,0,1.27,0,1.9a1.08,1.08,0,0,1-1.19,1.22c-1.29,0-2.57,0-3.86,0a1.09,1.09,0,0,1-1.2-1.22c0-1.26,0-2.53,0-3.8a1.09,1.09,0,0,1,1.25-1.22q1.88,0,3.75,0c.85,0,1.24.41,1.25,1.27V37.5Zm-2.12,1v-2.1c-.61,0-1.18,0-1.75,0-.1,0-.28.19-.29.3a11.85,11.85,0,0,0,0,1.46c0,.11.19.3.29.3C15.45,38.56,16,38.55,16.63,38.55Z"/><path class="cls-1" d="M29.72,29.17h6.59c.72,0,1.18.43,1.18,1a1.07,1.07,0,0,1-1.21,1.05H23.05A1.07,1.07,0,0,1,22,30.66a1,1,0,0,1,.09-1.06,1.17,1.17,0,0,1,1-.43Z"/><path class="cls-1" d="M29.67,40.62c-2.18,0-4.36,0-6.54,0-.83,0-1.37-.53-1.22-1.21a1,1,0,0,1,.89-.84,4.61,4.61,0,0,1,.53,0H36.42a1,1,0,1,1,0,2.07c-.83,0-1.66,0-2.49,0Z"/><path class="cls-1" d="M26,36.45c-1,0-2.05,0-3.07,0a1,1,0,0,1-.91-1.52A1.38,1.38,0,0,1,23,34.4c2.05,0,4.09,0,6.14,0a1,1,0,0,1,1.09,1.06,1,1,0,0,1-1.09,1c-1,0-2.05,0-3.07,0Z"/><path class="cls-1" d="M33.83,27.08c-.79,0-1.59,0-2.39,0s-1.22-.41-1.22-1a1.07,1.07,0,0,1,1.21-1c1.65,0,3.29,0,4.93,0a1,1,0,0,1,1.1.85A1,1,0,0,1,36.89,27a1.69,1.69,0,0,1-.67.11Z"/><path class="cls-1" d="M25,27.08c-.65,0-1.3,0-1.95,0a1,1,0,1,1,0-2.08Q25,25,27,25a1.07,1.07,0,0,1,1.17,1.05,1.05,1.05,0,0,1-1.15,1c-.66,0-1.33,0-2,0Z"/><path class="cls-1" d="M34.89,36.45c-.5,0-1,0-1.51,0a1,1,0,1,1,0-2.06c1,0,2,0,3.07,0a1,1,0,0,1,1.06,1,1.06,1.06,0,0,1-1.09,1H34.89Z"/><path class="cls-3" d="M16.67,29.17c-.65,0-1.25,0-1.84,0a.41.41,0,0,1-.24-.31c0-.57,0-1.15.07-1.72.56,0,1.13-.05,1.69,0a.41.41,0,0,1,.31.24C16.68,27.92,16.67,28.52,16.67,29.17Z"/><path class="cls-3" d="M16.63,38.55c-.61,0-1.18,0-1.75,0-.1,0-.28-.19-.29-.3a11.85,11.85,0,0,1,0-1.46c0-.11.19-.3.29-.3.57,0,1.14,0,1.75,0Z"/></g></g></svg>