<svg xmlns="http://www.w3.org/2000/svg" xmlns:xlink="http://www.w3.org/1999/xlink" viewBox="0 0 46.08 48"><defs><style>.cls-1,.cls-4{fill:none;}.cls-2{fill:#e1fbff;}.cls-3{clip-path:url(#clip-path);}.cls-4{stroke:#009cbc;stroke-linecap:round;stroke-miterlimit:10;stroke-width:1.54px;}.cls-5{fill:#7fabda;}.cls-6{fill:#009cbc;}</style><clipPath id="clip-path" transform="translate(0 0)"><rect class="cls-1" width="46.08" height="30.72"/></clipPath></defs><title>Software Downloads</title><g id="Layer_2" data-name="Layer 2"><g id="Layer_1-2" data-name="Layer 1"><path class="cls-2" d="M38.4,13.06A12.42,12.42,0,0,0,26.18.77,12.82,12.82,0,0,0,15.69,6.4a6.16,6.16,0,0,0-9.55,5.12c0,.12,0,.23,0,.35s0,.28,0,.42A9.82,9.82,0,0,0,.77,20.85,9.12,9.12,0,0,0,9.87,30h27a8.49,8.49,0,0,0,8.47-8.47,8.6,8.6,0,0,0-6.91-8.42Z" transform="translate(0 0)"/><g class="cls-3"><path class="cls-4" d="M38.4,13.06A12.42,12.42,0,0,0,26.18.77,12.82,12.82,0,0,0,15.69,6.4a6.16,6.16,0,0,0-9.55,5.12c0,.12,0,.23,0,.35s0,.28,0,.42A9.82,9.82,0,0,0,.77,20.85,9.12,9.12,0,0,0,9.87,30h27a8.49,8.49,0,0,0,8.47-8.47,8.6,8.6,0,0,0-6.91-8.42Z" transform="translate(0 0)"/></g><path class="cls-5" d="M38.4,13.06a14.71,14.71,0,0,0-3.84,0" transform="translate(0 0)"/><g class="cls-3"><path class="cls-4" d="M38.4,13.06a14.71,14.71,0,0,0-3.84,0" transform="translate(0 0)"/></g><path class="cls-2" d="M6.14,11.52a6.15,6.15,0,0,1,12.29,0" transform="translate(0 0)"/><g class="cls-3"><path class="cls-4" d="M6.14,11.52a6.15,6.15,0,0,1,12.29,0" transform="translate(0 0)"/></g><path class="cls-6" d="M27.24,39.39h2.9c.33,0,.7,0,.88.27s-.05.55-.25.79l-6.08,7.12c-.49.58-.91.57-1.41,0-2.05-2.4-4.09-4.8-6.15-7.2-.18-.22-.31-.43-.16-.69s.45-.28.75-.28h3V33.45c0-.58.28-.81,1-.81h4.69c.63,0,.85.18.85.72v6ZM18.85,40.5l5.21,6.06,5.22-6.06H26.79c-.54,0-.76-.2-.77-.65V33.77H22.11v6c0,.47-.25.68-.81.68H18.85Z" transform="translate(0 0)"/><path class="cls-2" d="M18.85,40.5H21.3c.56,0,.8-.21.81-.68v-6H26v6.08c0,.45.23.64.77.65h2.49l-5.22,6.06Z" transform="translate(0 0)"/></g></g></svg>