<svg xmlns="http://www.w3.org/2000/svg" xmlns:xlink="http://www.w3.org/1999/xlink" viewBox="0 0 50 50"><defs><style>.cls-1{fill:none;}.cls-2{fill:#ff7956;}.cls-3{fill:#e1fbff;}.cls-4{clip-path:url(#clip-path);}.cls-5{fill:#069bbb;}</style><clipPath id="clip-path"><rect class="cls-1" width="50" height="50"/></clipPath></defs><title>Volkensoft</title><g id="Layer_2" data-name="Layer 2"><g id="Layer_1-2" data-name="Layer 1"><path class="cls-2" d="M49.27,13.43,36.57.73a6.24,6.24,0,0,1-8.83,0l-27,27a6.24,6.24,0,0,1,0,8.83l12.7,12.7a6.24,6.24,0,0,1,8.83,0l27-27a6.24,6.24,0,0,1,0-8.83Z"/><path class="cls-3" d="M49.27,13.43,36.57.73a6.24,6.24,0,0,1-8.83,0l-27,27a6.24,6.24,0,0,1,0,8.83l12.7,12.7a6.24,6.24,0,0,1,8.83,0l27-27a6.24,6.24,0,0,1,0-8.83Z"/><path class="cls-3" d="M.54,27.55a6.24,6.24,0,0,1,0,8.83L13.23,49.07a6.24,6.24,0,0,1,8.83,0l3.81-3.81a6.24,6.24,0,0,0-8.61.21L4.57,32.78a6.25,6.25,0,0,0,0-8.84"/><g class="cls-4"><path class="cls-3" d="M42.41,18.11,31.89,7.59a3.7,3.7,0,0,1-5.24,0L7.59,26.65a3.7,3.7,0,0,1,0,5.24L18.11,42.41a3.7,3.7,0,0,1,5.24,0L42.41,23.35a3.7,3.7,0,0,1,0-5.24Z"/><path class="cls-5" d="M49.79,13.94a.74.74,0,0,0,0-1L37.09.21a.74.74,0,0,0-1,0,5.45,5.45,0,0,1-3.9,1.62A5.45,5.45,0,0,1,28.26.21a.75.75,0,0,0-1,0l-27,27a.78.78,0,0,0-.21.52.76.76,0,0,0,.21.52,5.45,5.45,0,0,1,1.62,3.9,5.45,5.45,0,0,1-1.62,3.9.74.74,0,0,0,0,1l12.7,12.7a.74.74,0,0,0,1,0,5.5,5.5,0,0,1,7.8,0,.73.73,0,0,0,.52.21.75.75,0,0,0,.52-.21l21-21a.73.73,0,1,0-1-1L22.23,48.26a7,7,0,0,0-8.78,0L1.74,36.55a6.9,6.9,0,0,0,1.55-4.39,6.9,6.9,0,0,0-1.55-4.39l26-26a6.9,6.9,0,0,0,4.39,1.55,6.9,6.9,0,0,0,4.39-1.55L48.26,13.45a7,7,0,0,0,0,8.78L44.7,25.79a.73.73,0,0,0,0,1,.72.72,0,0,0,1,0l4.06-4a.75.75,0,0,0,0-1,5.52,5.52,0,0,1,0-7.8Z"/></g><path class="cls-5" d="M42.93,17.59,32.41,7.07a.74.74,0,0,0-1,0,3,3,0,0,1-4.21,0,.76.76,0,0,0-.52-.21.78.78,0,0,0-.52.21L14.64,18.57a.73.73,0,0,0,1,1l11-11a4.45,4.45,0,0,0,5.16,0l9.57,9.57a4.45,4.45,0,0,0,0,5.16L23.31,41.42a4.45,4.45,0,0,0-5.16,0L8.58,31.85a4.43,4.43,0,0,0,0-5.15l5.16-5.16a.73.73,0,1,0-1-1L7.07,26.13a.78.78,0,0,0-.21.52.76.76,0,0,0,.21.52,3,3,0,0,1,0,4.21.74.74,0,0,0,0,1L17.59,42.93a.74.74,0,0,0,1,0,3,3,0,0,1,4.21,0,.76.76,0,0,0,.52.21.78.78,0,0,0,.52-.21L42.93,23.87a.75.75,0,0,0,0-1,3,3,0,0,1,0-4.21.74.74,0,0,0,0-1Z"/><path class="cls-5" d="M44.93,16.31a.73.73,0,0,0,.52-1.25L34.94,4.55a.73.73,0,0,0-1,0,.72.72,0,0,0,0,1L44.42,16.1a.73.73,0,0,0,.51.21Z"/><path class="cls-5" d="M4.55,33.9a.73.73,0,0,0,0,1L15.06,45.45a.76.76,0,0,0,.52.22.74.74,0,0,0,.52-.22.72.72,0,0,0,0-1L5.58,33.9a.72.72,0,0,0-1,0Z"/><path class="cls-5" d="M24.77,26.18a.74.74,0,0,0-.9.52.73.73,0,0,0,.51.9,2.72,2.72,0,0,0,.69.09,2.63,2.63,0,0,0,2.53-3.3.73.73,0,0,0-.9-.52.74.74,0,0,0-.52.9,1.15,1.15,0,0,1-1.41,1.41Z"/><path class="cls-5" d="M28.26,20.5a.74.74,0,0,0,.52.22.76.76,0,0,0,.52-.22.74.74,0,0,0,0-1l-.79-.79a.73.73,0,0,0-1,1Z"/><path class="cls-5" d="M20,29.51a.73.73,0,0,0,.52-1.25l-.78-.78a.73.73,0,0,0-1,1l.79.79a.73.73,0,0,0,.51.21Z"/><path class="cls-5" d="M29.87,22.59a.73.73,0,0,1-.52-.21.75.75,0,0,1,0-1l.79-.78a.73.73,0,0,1,1,1l-.78.79a.75.75,0,0,1-.52.21Z"/><path class="cls-5" d="M21.07,31.39a.74.74,0,0,1-.51-.22.72.72,0,0,1,0-1l.78-.79a.74.74,0,0,1,1,1l-.79.78a.74.74,0,0,1-.52.22Z"/></g></g></svg>