<svg xmlns="http://www.w3.org/2000/svg" xmlns:xlink="http://www.w3.org/1999/xlink" viewBox="0 0 14.1 15.99"><defs><style>.cls-1{fill:none;}.cls-2{clip-path:url(#clip-path);}.cls-3{fill:#fff;}</style><clipPath id="clip-path"><rect class="cls-1" width="14.1" height="16"/></clipPath></defs><title>Add Users</title><g id="Layer_2" data-name="Layer 2"><g id="Layer_1-2" data-name="Layer 1"><g class="cls-2"><path class="cls-3" d="M6.09,8.1C8.34,8.1,9.15,5.85,9.36,4c.26-2.28-.81-4-3.27-4S2.56,1.72,2.82,4c.21,1.85,1,4.1,3.27,4.1Z"/><path class="cls-3" d="M11,9h.22a1.61,1.61,0,0,0-.38-.4A5.94,5.94,0,0,0,9.36,8c-.24-.1-.45-.19-.66-.3A3.41,3.41,0,0,1,6.09,8.87,3.41,3.41,0,0,1,3.48,7.73c-.21.11-.42.2-.66.3a5.94,5.94,0,0,0-1.49.62C.58,9.21.39,10.47.24,11.32A15.54,15.54,0,0,0,0,13.47c0,.56.26.63.72.8a14.45,14.45,0,0,0,1.79.5,18.74,18.74,0,0,0,3.58.44,14.7,14.7,0,0,0,1.75-.12A3.85,3.85,0,0,1,11,9Z"/><path class="cls-3" d="M11,9.81A3.09,3.09,0,1,0,14.1,12.9,3.09,3.09,0,0,0,11,9.81Zm1.35,3.62h-.82v.82a.53.53,0,0,1-.53.53.53.53,0,0,1-.53-.53v-.82H9.66a.53.53,0,0,1,0-1.06h.82v-.82A.53.53,0,0,1,11,11a.53.53,0,0,1,.53.53v.82h.82a.53.53,0,0,1,0,1.06Z"/></g></g></g></svg>