<svg xmlns="http://www.w3.org/2000/svg" xmlns:xlink="http://www.w3.org/1999/xlink" viewBox="0 0 13.88 15.95"><defs><style>.cls-1{fill:none;}.cls-2{clip-path:url(#clip-path);}.cls-3{fill:#fff;}</style><clipPath id="clip-path" transform="translate(0 -0.01)"><rect class="cls-1" width="13.88" height="16"/></clipPath></defs><title>Back to Users</title><g id="Layer_2" data-name="Layer 2"><g id="Layer_1-2" data-name="Layer 1"><g class="cls-2"><path class="cls-3" d="M7.7,15.92A7,7,0,0,0,7,2V.13A.13.13,0,0,0,6.76,0L2.9,2.88a.11.11,0,0,0,0,.19L6.76,5.91A.14.14,0,0,0,7,5.81V3.94A5.05,5.05,0,1,1,1.91,9.8a1,1,0,0,0-1.9.29A7,7,0,0,0,7.7,15.92Z" transform="translate(0 -0.01)"/></g></g></g></svg>