<svg xmlns="http://www.w3.org/2000/svg" viewBox="0 0 16 15"><defs><style>.cls-1{fill:#eceff1;}.cls-2{fill:#388e3c;}.cls-3{fill:#2e7d32;}.cls-4{fill:#fafafa;}</style></defs><title>Export</title><g id="Layer_2" data-name="Layer 2"><g id="Layer_1-2" data-name="Layer 1"><path class="cls-1" d="M15.5,13h-7a.5.5,0,0,1-.5-.5V2.5A.5.5,0,0,1,8.5,2h7a.5.5,0,0,1,.5.5v10A.5.5,0,0,1,15.5,13Z"/><path class="cls-2" d="M10.5,5h-2a.5.5,0,0,1,0-1h2a.5.5,0,0,1,0,1Z"/><path class="cls-2" d="M10.5,7h-2a.5.5,0,0,1,0-1h2a.5.5,0,0,1,0,1Z"/><path class="cls-2" d="M10.5,9h-2a.5.5,0,0,1,0-1h2a.5.5,0,0,1,0,1Z"/><path class="cls-2" d="M10.5,11h-2a.5.5,0,0,1,0-1h2a.5.5,0,0,1,0,1Z"/><path class="cls-2" d="M13.5,5h-1a.5.5,0,0,1,0-1h1a.5.5,0,0,1,0,1Z"/><path class="cls-2" d="M13.5,7h-1a.5.5,0,0,1,0-1h1a.5.5,0,0,1,0,1Z"/><path class="cls-2" d="M13.5,9h-1a.5.5,0,0,1,0-1h1a.5.5,0,0,1,0,1Z"/><path class="cls-2" d="M13.5,11h-1a.5.5,0,0,1,0-1h1a.5.5,0,0,1,0,1Z"/><path class="cls-3" d="M8.82.12A.48.48,0,0,0,8.41,0l-8,1.5A.49.49,0,0,0,0,2V13a.49.49,0,0,0,.41.49l8,1.5H8.5a.52.52,0,0,0,.32-.11A.53.53,0,0,0,9,14.5V.5A.49.49,0,0,0,8.82.12Z"/><path class="cls-4" d="M6.88,9.17,5.3,7.36,6.89,5.31a.5.5,0,1,0-.78-.62L4.62,6.6,3.38,5.17a.5.5,0,1,0-.76.66L4,7.4,2.61,9.19A.49.49,0,0,0,3,10a.49.49,0,0,0,.39-.19L4.67,8.17,6.12,9.83a.51.51,0,0,0,.71.05A.51.51,0,0,0,6.88,9.17Z"/></g></g></svg>